<?xml version="1.0" encoding="utf-8"?>
<!-- Generator: Adobe Illustrator 25.3.1, SVG Export Plug-In . SVG Version: 6.00 Build 0)  -->
<svg version="1.1" id="Layer_1" xmlns="http://www.w3.org/2000/svg" xmlns:xlink="http://www.w3.org/1999/xlink" x="0px" y="0px"
	 viewBox="0 0 800 1064.1" style="enable-background:new 0 0 800 1064.1;" xml:space="preserve">
<style type="text/css">
	.st0{fill:#C99166;}
</style>
<g>
	<path class="st0" d="M400,10.7c-215.6,0-391,169-391,376.8c0,68.9,19.5,136.3,57,195.9l307.4,455.7c6.1,9,16.2,14.4,27,14.4h0
		c10.8,0,21-5.4,27-14.4l307.5-456.8c36.8-58.7,56.2-126,56.2-194.7C791,179.7,615.6,10.7,400,10.7z M400,475.6
		c-49.4,0-89.5-40.1-89.5-89.5c0-49.4,40.1-89.5,89.5-89.5c49.4,0,89.5,40.1,89.5,89.5C489.5,435.5,449.4,475.6,400,475.6z"/>
	<path d="M489.5,386.1c0,49.4-40.1,89.5-89.5,89.5c-49.4,0-89.5-40.1-89.5-89.5c0-49.4,40.1-89.5,89.5-89.5
		C449.4,296.6,489.5,336.7,489.5,386.1z"/>
</g>
</svg>
